<svg width="202" height="55" viewBox="0 0 202 55" fill="none" xmlns="http://www.w3.org/2000/svg">
<path d="M12.592 8.048C12.696 8.184 12.816 8.364 12.952 8.588C13.096 8.812 13.236 9.04 13.372 9.272C13.508 9.504 13.62 9.716 13.708 9.908L13.024 10.22C12.928 10.012 12.82 9.8 12.7 9.584C12.58 9.36 12.456 9.14 12.328 8.924C12.2 8.708 12.068 8.508 11.932 8.324L12.592 8.048ZM14.164 7.472C14.276 7.608 14.4 7.784 14.536 8C14.672 8.216 14.812 8.44 14.956 8.672C15.1 8.904 15.22 9.116 15.316 9.308L14.632 9.62C14.528 9.404 14.412 9.188 14.284 8.972C14.156 8.756 14.024 8.544 13.888 8.336C13.76 8.128 13.628 7.936 13.492 7.76L14.164 7.472ZM7.468 7.868C7.644 7.964 7.852 8.092 8.092 8.252C8.332 8.404 8.58 8.564 8.836 8.732C9.092 8.892 9.328 9.048 9.544 9.2C9.768 9.344 9.944 9.464 10.072 9.56L9.508 10.388C9.364 10.276 9.18 10.144 8.956 9.992C8.74 9.84 8.508 9.684 8.26 9.524C8.02 9.356 7.78 9.2 7.54 9.056C7.308 8.904 7.104 8.776 6.928 8.672L7.468 7.868ZM5.668 16.448C6.108 16.368 6.56 16.264 7.024 16.136C7.488 16.008 7.948 15.852 8.404 15.668C8.86 15.484 9.288 15.28 9.688 15.056C10.352 14.672 10.968 14.248 11.536 13.784C12.104 13.312 12.616 12.812 13.072 12.284C13.528 11.756 13.916 11.212 14.236 10.652L14.812 11.648C14.292 12.448 13.632 13.224 12.832 13.976C12.032 14.72 11.152 15.372 10.192 15.932C9.792 16.164 9.352 16.38 8.872 16.58C8.4 16.772 7.932 16.94 7.468 17.084C7.012 17.236 6.596 17.348 6.22 17.42L5.668 16.448ZM5.656 10.568C5.832 10.664 6.044 10.784 6.292 10.928C6.54 11.072 6.792 11.224 7.048 11.384C7.304 11.544 7.54 11.696 7.756 11.84C7.98 11.976 8.156 12.092 8.284 12.188L7.744 13.028C7.592 12.916 7.404 12.788 7.18 12.644C6.964 12.5 6.732 12.348 6.484 12.188C6.236 12.028 5.992 11.88 5.752 11.744C5.512 11.6 5.3 11.48 5.116 11.384L5.656 10.568ZM25.264 7.028C25.36 7.164 25.468 7.328 25.588 7.52C25.708 7.712 25.824 7.904 25.936 8.096C26.048 8.28 26.14 8.452 26.212 8.612L25.552 8.9C25.472 8.74 25.376 8.564 25.264 8.372C25.16 8.18 25.048 7.992 24.928 7.808C24.816 7.616 24.708 7.448 24.604 7.304L25.264 7.028ZM26.8 6.716C26.904 6.852 27.016 7.016 27.136 7.208C27.256 7.392 27.372 7.584 27.484 7.784C27.604 7.976 27.704 8.148 27.784 8.3L27.124 8.588C26.988 8.34 26.832 8.064 26.656 7.76C26.48 7.456 26.308 7.2 26.14 6.992L26.8 6.716ZM26.344 9.188C26.304 9.268 26.268 9.36 26.236 9.464C26.212 9.56 26.188 9.668 26.164 9.788C26.1 10.1 26.016 10.448 25.912 10.832C25.808 11.216 25.68 11.612 25.528 12.02C25.384 12.42 25.212 12.808 25.012 13.184C24.82 13.56 24.608 13.904 24.376 14.216C24.008 14.68 23.596 15.112 23.14 15.512C22.692 15.912 22.18 16.272 21.604 16.592C21.036 16.912 20.384 17.188 19.648 17.42L18.832 16.52C19.608 16.328 20.28 16.088 20.848 15.8C21.424 15.512 21.928 15.188 22.36 14.828C22.792 14.46 23.176 14.064 23.512 13.64C23.8 13.272 24.048 12.86 24.256 12.404C24.472 11.94 24.648 11.476 24.784 11.012C24.928 10.54 25.028 10.112 25.084 9.728C24.964 9.728 24.748 9.728 24.436 9.728C24.132 9.728 23.768 9.728 23.344 9.728C22.92 9.728 22.476 9.728 22.012 9.728C21.548 9.728 21.104 9.728 20.68 9.728C20.264 9.728 19.9 9.728 19.588 9.728C19.276 9.728 19.06 9.728 18.94 9.728C18.708 9.728 18.488 9.732 18.28 9.74C18.08 9.748 17.904 9.756 17.752 9.764V8.696C17.864 8.712 17.984 8.728 18.112 8.744C18.248 8.752 18.388 8.76 18.532 8.768C18.684 8.776 18.824 8.78 18.952 8.78C19.048 8.78 19.216 8.78 19.456 8.78C19.704 8.78 20 8.78 20.344 8.78C20.688 8.78 21.052 8.78 21.436 8.78C21.82 8.78 22.204 8.78 22.588 8.78C22.972 8.78 23.328 8.78 23.656 8.78C23.992 8.78 24.276 8.78 24.508 8.78C24.74 8.78 24.892 8.78 24.964 8.78C25.06 8.78 25.164 8.776 25.276 8.768C25.388 8.76 25.5 8.744 25.612 8.72L26.344 9.188ZM37.696 7.892C37.688 8.044 37.68 8.208 37.672 8.384C37.664 8.552 37.66 8.736 37.66 8.936C37.66 9.096 37.66 9.3 37.66 9.548C37.66 9.796 37.66 10.044 37.66 10.292C37.66 10.532 37.66 10.728 37.66 10.88C37.66 11.6 37.632 12.212 37.576 12.716C37.528 13.22 37.452 13.652 37.348 14.012C37.252 14.364 37.124 14.676 36.964 14.948C36.804 15.22 36.616 15.484 36.4 15.74C36.144 16.044 35.848 16.312 35.512 16.544C35.184 16.768 34.848 16.956 34.504 17.108C34.16 17.268 33.84 17.396 33.544 17.492L32.764 16.664C33.316 16.528 33.836 16.336 34.324 16.088C34.82 15.832 35.256 15.492 35.632 15.068C35.848 14.82 36.02 14.568 36.148 14.312C36.284 14.048 36.384 13.756 36.448 13.436C36.52 13.116 36.568 12.744 36.592 12.32C36.616 11.896 36.628 11.4 36.628 10.832C36.628 10.672 36.628 10.472 36.628 10.232C36.628 9.992 36.628 9.752 36.628 9.512C36.628 9.264 36.628 9.072 36.628 8.936C36.628 8.736 36.62 8.552 36.604 8.384C36.596 8.208 36.584 8.044 36.568 7.892H37.696ZM32.128 7.988C32.12 8.1 32.108 8.236 32.092 8.396C32.084 8.556 32.08 8.708 32.08 8.852C32.08 8.908 32.08 9.036 32.08 9.236C32.08 9.428 32.08 9.66 32.08 9.932C32.08 10.204 32.08 10.492 32.08 10.796C32.08 11.1 32.08 11.396 32.08 11.684C32.08 11.964 32.08 12.208 32.08 12.416C32.08 12.624 32.08 12.772 32.08 12.86C32.08 13.012 32.084 13.176 32.092 13.352C32.108 13.52 32.12 13.66 32.128 13.772H31.024C31.04 13.676 31.052 13.544 31.06 13.376C31.076 13.2 31.084 13.024 31.084 12.848C31.084 12.768 31.084 12.624 31.084 12.416C31.084 12.2 31.084 11.952 31.084 11.672C31.084 11.392 31.084 11.1 31.084 10.796C31.084 10.492 31.084 10.204 31.084 9.932C31.084 9.66 31.084 9.428 31.084 9.236C31.084 9.036 31.084 8.908 31.084 8.852C31.084 8.748 31.08 8.608 31.072 8.432C31.064 8.248 31.052 8.1 31.036 7.988H32.128ZM42.316 8.972C42.476 8.996 42.652 9.016 42.844 9.032C43.044 9.04 43.204 9.044 43.324 9.044H49.924C50.108 9.044 50.288 9.036 50.464 9.02C50.64 9.004 50.8 8.988 50.944 8.972V10.028C50.792 10.012 50.624 10 50.44 9.992C50.264 9.984 50.092 9.98 49.924 9.98H43.324C43.212 9.98 43.052 9.984 42.844 9.992C42.644 10 42.468 10.012 42.316 10.028V8.972ZM46.024 16.016V9.572H47.044V16.016H46.024ZM41.584 15.428C41.76 15.452 41.936 15.472 42.112 15.488C42.296 15.496 42.472 15.5 42.64 15.5H50.572C50.756 15.5 50.928 15.492 51.088 15.476C51.256 15.46 51.416 15.444 51.568 15.428V16.52C51.408 16.504 51.232 16.492 51.04 16.484C50.848 16.476 50.692 16.472 50.572 16.472H42.64C42.48 16.472 42.308 16.476 42.124 16.484C41.948 16.492 41.768 16.504 41.584 16.52V15.428ZM63.232 9.5C63.176 9.58 63.124 9.684 63.076 9.812C63.028 9.932 62.988 10.04 62.956 10.136C62.852 10.536 62.7 10.976 62.5 11.456C62.3 11.928 62.06 12.408 61.78 12.896C61.5 13.376 61.18 13.832 60.82 14.264C60.276 14.928 59.624 15.536 58.864 16.088C58.112 16.632 57.172 17.112 56.044 17.528L55.18 16.748C55.916 16.532 56.576 16.272 57.16 15.968C57.744 15.656 58.268 15.312 58.732 14.936C59.196 14.56 59.608 14.16 59.968 13.736C60.28 13.368 60.564 12.964 60.82 12.524C61.084 12.084 61.308 11.644 61.492 11.204C61.676 10.756 61.808 10.352 61.888 9.992H57.436L57.82 9.128C57.916 9.128 58.096 9.128 58.36 9.128C58.624 9.128 58.924 9.128 59.26 9.128C59.604 9.128 59.944 9.128 60.28 9.128C60.616 9.128 60.908 9.128 61.156 9.128C61.412 9.128 61.576 9.128 61.648 9.128C61.808 9.128 61.956 9.12 62.092 9.104C62.228 9.08 62.34 9.048 62.428 9.008L63.232 9.5ZM59.212 7.676C59.108 7.836 59.008 8.008 58.912 8.192C58.816 8.368 58.74 8.512 58.684 8.624C58.444 9.064 58.144 9.54 57.784 10.052C57.424 10.556 56.996 11.056 56.5 11.552C56.004 12.048 55.432 12.512 54.784 12.944L53.956 12.32C54.476 12.016 54.94 11.684 55.348 11.324C55.756 10.964 56.112 10.6 56.416 10.232C56.728 9.864 56.992 9.512 57.208 9.176C57.424 8.84 57.596 8.536 57.724 8.264C57.788 8.16 57.856 8.016 57.928 7.832C58.008 7.64 58.064 7.468 58.096 7.316L59.212 7.676ZM74.1967 8.972C74.1567 9.02 74.1047 9.1 74.0407 9.212C73.9847 9.316 73.9367 9.412 73.8967 9.5C73.7447 9.892 73.5447 10.328 73.2967 10.808C73.0487 11.28 72.7727 11.748 72.4687 12.212C72.1647 12.676 71.8447 13.096 71.5087 13.472C71.0687 13.968 70.5847 14.452 70.0567 14.924C69.5287 15.388 68.9727 15.824 68.3887 16.232C67.8047 16.632 67.1967 16.976 66.5647 17.264L65.7967 16.46C66.4447 16.204 67.0647 15.888 67.6567 15.512C68.2567 15.128 68.8167 14.712 69.3367 14.264C69.8647 13.808 70.3327 13.352 70.7407 12.896C71.0127 12.584 71.2807 12.236 71.5447 11.852C71.8167 11.46 72.0567 11.064 72.2647 10.664C72.4807 10.256 72.6367 9.888 72.7327 9.56C72.6687 9.56 72.5167 9.56 72.2767 9.56C72.0367 9.56 71.7527 9.56 71.4247 9.56C71.0967 9.56 70.7527 9.56 70.3927 9.56C70.0327 9.56 69.6887 9.56 69.3607 9.56C69.0327 9.56 68.7487 9.56 68.5087 9.56C68.2767 9.56 68.1247 9.56 68.0527 9.56C67.9167 9.56 67.7607 9.564 67.5847 9.572C67.4167 9.58 67.2607 9.588 67.1167 9.596C66.9807 9.604 66.8887 9.612 66.8407 9.62V8.528C66.8967 8.536 66.9967 8.548 67.1407 8.564C67.2927 8.572 67.4527 8.58 67.6207 8.588C67.7887 8.596 67.9327 8.6 68.0527 8.6C68.1407 8.6 68.3007 8.6 68.5327 8.6C68.7647 8.6 69.0407 8.6 69.3607 8.6C69.6887 8.6 70.0287 8.6 70.3807 8.6C70.7327 8.6 71.0687 8.6 71.3887 8.6C71.7167 8.6 71.9967 8.6 72.2287 8.6C72.4607 8.6 72.6127 8.6 72.6847 8.6C72.8847 8.6 73.0607 8.592 73.2127 8.576C73.3727 8.56 73.4967 8.536 73.5847 8.504L74.1967 8.972ZM71.6647 12.836C71.9927 13.108 72.3287 13.408 72.6727 13.736C73.0247 14.064 73.3687 14.404 73.7047 14.756C74.0407 15.1 74.3527 15.432 74.6407 15.752C74.9287 16.064 75.1767 16.348 75.3847 16.604L74.5447 17.324C74.2647 16.94 73.9287 16.528 73.5367 16.088C73.1447 15.64 72.7287 15.196 72.2887 14.756C71.8567 14.308 71.4207 13.896 70.9807 13.52L71.6647 12.836ZM86.4487 8.384C86.4487 8.6 86.5247 8.788 86.6767 8.948C86.8367 9.1 87.0247 9.176 87.2407 9.176C87.4647 9.176 87.6527 9.1 87.8047 8.948C87.9647 8.788 88.0447 8.6 88.0447 8.384C88.0447 8.16 87.9647 7.972 87.8047 7.82C87.6527 7.66 87.4647 7.58 87.2407 7.58C87.0247 7.58 86.8367 7.66 86.6767 7.82C86.5247 7.972 86.4487 8.16 86.4487 8.384ZM85.8967 8.384C85.8967 8.136 85.9567 7.912 86.0767 7.712C86.2047 7.504 86.3687 7.34 86.5687 7.22C86.7687 7.092 86.9927 7.028 87.2407 7.028C87.4887 7.028 87.7127 7.092 87.9127 7.22C88.1207 7.34 88.2847 7.504 88.4047 7.712C88.5327 7.912 88.5967 8.136 88.5967 8.384C88.5967 8.632 88.5327 8.856 88.4047 9.056C88.2847 9.256 88.1207 9.42 87.9127 9.548C87.7127 9.668 87.4887 9.728 87.2407 9.728C86.9927 9.728 86.7687 9.668 86.5687 9.548C86.3687 9.42 86.2047 9.256 86.0767 9.056C85.9567 8.856 85.8967 8.632 85.8967 8.384ZM86.9407 9.188C86.9007 9.268 86.8647 9.36 86.8327 9.464C86.8087 9.56 86.7847 9.668 86.7607 9.788C86.6967 10.1 86.6127 10.448 86.5087 10.832C86.4047 11.216 86.2767 11.612 86.1247 12.02C85.9807 12.42 85.8127 12.808 85.6207 13.184C85.4287 13.56 85.2127 13.904 84.9727 14.216C84.6047 14.68 84.1967 15.112 83.7487 15.512C83.3007 15.912 82.7887 16.272 82.2127 16.592C81.6367 16.912 80.9807 17.188 80.2447 17.42L79.4287 16.52C80.2127 16.328 80.8887 16.088 81.4567 15.8C82.0327 15.512 82.5367 15.188 82.9687 14.828C83.4007 14.46 83.7807 14.064 84.1087 13.64C84.3967 13.272 84.6447 12.86 84.8527 12.404C85.0687 11.94 85.2487 11.476 85.3927 11.012C85.5367 10.54 85.6327 10.112 85.6807 9.728C85.5687 9.728 85.3567 9.728 85.0447 9.728C84.7327 9.728 84.3647 9.728 83.9407 9.728C83.5167 9.728 83.0727 9.728 82.6087 9.728C82.1527 9.728 81.7127 9.728 81.2887 9.728C80.8647 9.728 80.4967 9.728 80.1847 9.728C79.8727 9.728 79.6607 9.728 79.5487 9.728C79.3087 9.728 79.0887 9.732 78.8887 9.74C78.6887 9.748 78.5087 9.756 78.3487 9.764V8.696C78.4607 8.712 78.5847 8.728 78.7207 8.744C78.8567 8.752 78.9967 8.76 79.1407 8.768C79.2847 8.776 79.4207 8.78 79.5487 8.78C79.6447 8.78 79.8167 8.78 80.0647 8.78C80.3127 8.78 80.6047 8.78 80.9407 8.78C81.2847 8.78 81.6487 8.78 82.0327 8.78C82.4247 8.78 82.8087 8.78 83.1847 8.78C83.5687 8.78 83.9247 8.78 84.2527 8.78C84.5887 8.78 84.8727 8.78 85.1047 8.78C85.3367 8.78 85.4927 8.78 85.5727 8.78C85.6607 8.78 85.7607 8.776 85.8727 8.768C85.9847 8.76 86.0967 8.744 86.2087 8.72L86.9407 9.188ZM90.7327 8.78C90.9727 8.788 91.1767 8.796 91.3447 8.804C91.5127 8.804 91.6647 8.804 91.8007 8.804C91.8967 8.804 92.0727 8.804 92.3287 8.804C92.5847 8.804 92.8927 8.804 93.2527 8.804C93.6207 8.804 94.0127 8.804 94.4287 8.804C94.8447 8.804 95.2567 8.804 95.6647 8.804C96.0807 8.804 96.4687 8.804 96.8287 8.804C97.1887 8.804 97.4927 8.804 97.7407 8.804C97.9887 8.804 98.1567 8.804 98.2447 8.804C98.3727 8.804 98.5327 8.804 98.7247 8.804C98.9247 8.796 99.1167 8.788 99.3007 8.78C99.2927 8.924 99.2847 9.08 99.2767 9.248C99.2767 9.408 99.2767 9.564 99.2767 9.716C99.2767 9.796 99.2767 9.956 99.2767 10.196C99.2767 10.428 99.2767 10.712 99.2767 11.048C99.2767 11.384 99.2767 11.748 99.2767 12.14C99.2767 12.524 99.2767 12.908 99.2767 13.292C99.2767 13.676 99.2767 14.032 99.2767 14.36C99.2767 14.688 99.2767 14.968 99.2767 15.2C99.2767 15.424 99.2767 15.568 99.2767 15.632C99.2767 15.72 99.2767 15.84 99.2767 15.992C99.2767 16.144 99.2767 16.296 99.2767 16.448C99.2847 16.6 99.2887 16.736 99.2887 16.856C99.2967 16.968 99.3007 17.044 99.3007 17.084H98.2687C98.2687 17.036 98.2687 16.94 98.2687 16.796C98.2767 16.644 98.2807 16.476 98.2807 16.292C98.2887 16.1 98.2927 15.92 98.2927 15.752C98.2927 15.696 98.2927 15.544 98.2927 15.296C98.2927 15.048 98.2927 14.744 98.2927 14.384C98.2927 14.016 98.2927 13.624 98.2927 13.208C98.2927 12.784 98.2927 12.372 98.2927 11.972C98.2927 11.564 98.2927 11.192 98.2927 10.856C98.2927 10.52 98.2927 10.252 98.2927 10.052C98.2927 9.852 98.2927 9.752 98.2927 9.752H91.7287C91.7287 9.752 91.7287 9.852 91.7287 10.052C91.7287 10.244 91.7287 10.508 91.7287 10.844C91.7287 11.18 91.7287 11.552 91.7287 11.96C91.7287 12.36 91.7287 12.768 91.7287 13.184C91.7287 13.6 91.7287 13.992 91.7287 14.36C91.7287 14.72 91.7287 15.024 91.7287 15.272C91.7287 15.52 91.7287 15.68 91.7287 15.752C91.7287 15.856 91.7287 15.976 91.7287 16.112C91.7287 16.248 91.7287 16.384 91.7287 16.52C91.7367 16.648 91.7407 16.764 91.7407 16.868C91.7487 16.972 91.7527 17.044 91.7527 17.084H90.7207C90.7207 17.044 90.7207 16.968 90.7207 16.856C90.7287 16.736 90.7327 16.6 90.7327 16.448C90.7407 16.296 90.7447 16.148 90.7447 16.004C90.7447 15.852 90.7447 15.724 90.7447 15.62C90.7447 15.556 90.7447 15.408 90.7447 15.176C90.7447 14.944 90.7447 14.66 90.7447 14.324C90.7447 13.988 90.7447 13.628 90.7447 13.244C90.7447 12.852 90.7447 12.464 90.7447 12.08C90.7447 11.688 90.7447 11.328 90.7447 11C90.7447 10.664 90.7447 10.384 90.7447 10.16C90.7447 9.928 90.7447 9.78 90.7447 9.716C90.7447 9.572 90.7447 9.416 90.7447 9.248C90.7447 9.08 90.7407 8.924 90.7327 8.78ZM98.6767 15.452V16.388H91.2607V15.452H98.6767ZM102.397 11.804C102.517 11.812 102.665 11.824 102.841 11.84C103.017 11.848 103.209 11.856 103.417 11.864C103.633 11.864 103.849 11.864 104.065 11.864C104.193 11.864 104.389 11.864 104.653 11.864C104.925 11.864 105.241 11.864 105.601 11.864C105.961 11.864 106.341 11.864 106.741 11.864C107.149 11.864 107.553 11.864 107.953 11.864C108.361 11.864 108.745 11.864 109.105 11.864C109.473 11.864 109.789 11.864 110.053 11.864C110.317 11.864 110.513 11.864 110.641 11.864C110.945 11.864 111.205 11.856 111.421 11.84C111.637 11.824 111.809 11.812 111.937 11.804V12.98C111.817 12.972 111.637 12.96 111.397 12.944C111.165 12.928 110.917 12.92 110.653 12.92C110.525 12.92 110.325 12.92 110.053 12.92C109.781 12.92 109.465 12.92 109.105 12.92C108.753 12.92 108.373 12.92 107.965 12.92C107.557 12.92 107.149 12.92 106.741 12.92C106.341 12.92 105.961 12.92 105.601 12.92C105.249 12.92 104.937 12.92 104.665 12.92C104.393 12.92 104.193 12.92 104.065 12.92C103.737 12.92 103.425 12.928 103.129 12.944C102.833 12.952 102.589 12.964 102.397 12.98V11.804ZM116.137 8.06C116.297 8.084 116.469 8.1 116.653 8.108C116.837 8.116 117.025 8.12 117.217 8.12C117.337 8.12 117.553 8.12 117.865 8.12C118.185 8.12 118.545 8.12 118.945 8.12C119.353 8.12 119.757 8.12 120.157 8.12C120.565 8.12 120.929 8.12 121.249 8.12C121.569 8.12 121.797 8.12 121.933 8.12C122.125 8.12 122.317 8.116 122.509 8.108C122.701 8.1 122.873 8.084 123.025 8.06V9.056C122.881 9.04 122.709 9.032 122.509 9.032C122.317 9.024 122.121 9.02 121.921 9.02C121.785 9.02 121.557 9.02 121.237 9.02C120.925 9.02 120.569 9.02 120.169 9.02C119.769 9.02 119.365 9.02 118.957 9.02C118.557 9.02 118.197 9.02 117.877 9.02C117.565 9.02 117.345 9.02 117.217 9.02C117.033 9.02 116.849 9.024 116.665 9.032C116.481 9.04 116.305 9.048 116.137 9.056V8.06ZM123.901 11.228C123.877 11.276 123.845 11.336 123.805 11.408C123.773 11.472 123.753 11.528 123.745 11.576C123.585 12.168 123.365 12.764 123.085 13.364C122.805 13.956 122.441 14.496 121.993 14.984C121.361 15.672 120.677 16.208 119.941 16.592C119.213 16.976 118.465 17.276 117.697 17.492L116.953 16.64C117.801 16.464 118.589 16.188 119.317 15.812C120.045 15.436 120.665 14.98 121.177 14.444C121.545 14.06 121.845 13.632 122.077 13.16C122.317 12.68 122.493 12.224 122.605 11.792C122.517 11.792 122.349 11.792 122.101 11.792C121.861 11.792 121.565 11.792 121.213 11.792C120.861 11.792 120.481 11.792 120.073 11.792C119.673 11.792 119.265 11.792 118.849 11.792C118.441 11.792 118.057 11.792 117.697 11.792C117.345 11.792 117.037 11.792 116.773 11.792C116.517 11.792 116.337 11.792 116.233 11.792C116.089 11.792 115.913 11.796 115.705 11.804C115.497 11.804 115.281 11.812 115.057 11.828V10.82C115.281 10.844 115.493 10.864 115.693 10.88C115.893 10.888 116.073 10.892 116.233 10.892C116.321 10.892 116.489 10.892 116.737 10.892C116.985 10.892 117.285 10.892 117.637 10.892C117.989 10.892 118.369 10.892 118.777 10.892C119.185 10.892 119.593 10.892 120.001 10.892C120.409 10.892 120.789 10.892 121.141 10.892C121.493 10.892 121.793 10.892 122.041 10.892C122.297 10.892 122.469 10.892 122.557 10.892C122.693 10.892 122.821 10.884 122.941 10.868C123.061 10.852 123.153 10.828 123.217 10.796L123.901 11.228ZM126.781 11.804C126.901 11.812 127.049 11.824 127.225 11.84C127.401 11.848 127.593 11.856 127.801 11.864C128.017 11.864 128.233 11.864 128.449 11.864C128.577 11.864 128.773 11.864 129.037 11.864C129.309 11.864 129.625 11.864 129.985 11.864C130.345 11.864 130.725 11.864 131.125 11.864C131.533 11.864 131.937 11.864 132.337 11.864C132.745 11.864 133.129 11.864 133.489 11.864C133.857 11.864 134.173 11.864 134.437 11.864C134.701 11.864 134.897 11.864 135.025 11.864C135.329 11.864 135.589 11.856 135.805 11.84C136.021 11.824 136.193 11.812 136.321 11.804V12.98C136.201 12.972 136.021 12.96 135.781 12.944C135.549 12.928 135.301 12.92 135.037 12.92C134.909 12.92 134.709 12.92 134.437 12.92C134.165 12.92 133.849 12.92 133.489 12.92C133.137 12.92 132.757 12.92 132.349 12.92C131.941 12.92 131.533 12.92 131.125 12.92C130.725 12.92 130.345 12.92 129.985 12.92C129.633 12.92 129.321 12.92 129.049 12.92C128.777 12.92 128.577 12.92 128.449 12.92C128.121 12.92 127.809 12.928 127.513 12.944C127.217 12.952 126.973 12.964 126.781 12.98V11.804Z" fill="#1A2E25" fill-opacity="0.6"/>
<path d="M10.608 43.5449C10.5013 42.8515 10.192 42.1049 9.68 41.3049C9.17867 40.5049 8.464 39.7529 7.536 39.0489C6.59733 38.3342 5.69067 37.8915 4.816 37.7209V37.0489C5.70133 36.8462 6.56 36.4515 7.392 35.8649C8.224 35.2782 8.928 34.5795 9.504 33.7689C10.08 32.9475 10.448 32.1102 10.608 31.2569H11.28C11.376 31.8009 11.568 32.3502 11.856 32.9049C12.1547 33.4595 12.5333 33.9929 12.992 34.5049C13.4507 35.0062 13.9573 35.4595 14.512 35.8649C15.3547 36.4622 16.2187 36.8569 17.104 37.0489V37.7209C16.5067 37.8382 15.8933 38.0782 15.264 38.4409C14.6453 38.8035 14.0693 39.2302 13.536 39.7209C13.0027 40.2115 12.5653 40.7289 12.224 41.2729C11.7013 42.1049 11.3867 42.8622 11.28 43.5449H10.608ZM10.832 43.1609H11.056C11.1093 42.6062 11.1947 42.0515 11.312 41.4969C11.44 40.9315 11.584 40.4089 11.744 39.9289C11.9147 39.4489 12.0907 39.0542 12.272 38.7449C12.6347 38.5422 13.0667 38.3555 13.568 38.1849C14.08 38.0142 14.608 37.8702 15.152 37.7529C15.7067 37.6355 16.2187 37.5609 16.688 37.5289V37.3049C16.2187 37.2622 15.7013 37.1822 15.136 37.0649C14.5813 36.9369 14.048 36.7875 13.536 36.6169C13.024 36.4355 12.6027 36.2489 12.272 36.0569C12.0907 35.7369 11.9147 35.3422 11.744 34.8729C11.584 34.3929 11.44 33.8809 11.312 33.3369C11.1947 32.7822 11.1093 32.2275 11.056 31.6729H10.832C10.7893 32.1742 10.7093 32.6969 10.592 33.2409C10.4853 33.7742 10.3467 34.2862 10.176 34.7769C10.0053 35.2675 9.81867 35.6942 9.616 36.0569C9.27467 36.2489 8.85333 36.4355 8.352 36.6169C7.85067 36.7875 7.32267 36.9369 6.768 37.0649C6.21333 37.1822 5.69067 37.2622 5.2 37.3049V37.5289C5.69067 37.5609 6.208 37.6355 6.752 37.7529C7.296 37.8702 7.81867 38.0142 8.32 38.1849C8.82133 38.3555 9.25333 38.5422 9.616 38.7449C9.81867 39.0862 10 39.5075 10.16 40.0089C10.3307 40.4995 10.4747 41.0222 10.592 41.5769C10.7093 42.1209 10.7893 42.6489 10.832 43.1609Z" fill="#4A7C59"/>
<path d="M37.29 29.8769C38.106 29.8769 38.772 29.9909 39.288 30.2189C39.804 30.4469 40.266 30.7229 40.674 31.0469C40.818 31.1549 40.938 31.2089 41.034 31.2089C41.262 31.2089 41.412 30.8489 41.484 30.1289H41.898C41.874 30.5969 41.856 31.1669 41.844 31.8389C41.832 32.4989 41.826 33.3809 41.826 34.4849H41.412C41.328 33.7649 41.196 33.1409 41.016 32.6129C40.848 32.0729 40.53 31.6109 40.062 31.2269C39.774 30.9509 39.414 30.7349 38.982 30.5789C38.562 30.4229 38.136 30.3449 37.704 30.3449C37.044 30.3449 36.48 30.5189 36.012 30.8669C35.544 31.2029 35.16 31.6649 34.86 32.2529C34.56 32.8409 34.338 33.5069 34.194 34.2509C34.05 34.9829 33.978 35.7449 33.978 36.5369C33.978 38.6969 34.272 40.2749 34.86 41.2709C35.46 42.2669 36.318 42.7649 37.434 42.7649C37.722 42.7649 37.974 42.7289 38.19 42.6569C38.406 42.5849 38.58 42.5009 38.712 42.4049C38.88 42.2849 38.994 42.1589 39.054 42.0269C39.114 41.8829 39.144 41.6969 39.144 41.4689V39.7049C39.144 39.1529 39.096 38.7449 39 38.4809C38.916 38.2049 38.742 38.0189 38.478 37.9229C38.214 37.8269 37.83 37.7729 37.326 37.7609V37.4009C37.578 37.4129 37.878 37.4249 38.226 37.4369C38.586 37.4369 38.958 37.4429 39.342 37.4549C39.726 37.4549 40.08 37.4549 40.404 37.4549C40.908 37.4549 41.37 37.4489 41.79 37.4369C42.21 37.4249 42.552 37.4129 42.816 37.4009V37.7609C42.588 37.7729 42.414 37.8149 42.294 37.8869C42.186 37.9589 42.108 38.1029 42.06 38.3189C42.024 38.5349 42.006 38.8649 42.006 39.3089V42.8729H41.646C41.634 42.6689 41.586 42.4469 41.502 42.2069C41.43 41.9669 41.304 41.8469 41.124 41.8469C41.04 41.8469 40.926 41.8709 40.782 41.9189C40.65 41.9549 40.44 42.0569 40.152 42.2249C39.708 42.4769 39.24 42.6929 38.748 42.8729C38.256 43.0409 37.74 43.1249 37.2 43.1249C35.808 43.1249 34.632 42.8669 33.672 42.3509C32.712 41.8349 31.986 41.0969 31.494 40.1369C31.014 39.1649 30.774 38.0009 30.774 36.6449C30.774 35.2769 31.05 34.0889 31.602 33.0809C32.166 32.0729 32.934 31.2869 33.906 30.7229C34.89 30.1589 36.018 29.8769 37.29 29.8769ZM51.7683 42.8729V42.5129C52.1523 42.4889 52.4403 42.4409 52.6323 42.3689C52.8243 42.2969 52.9503 42.1529 53.0103 41.9369C53.0823 41.7209 53.1183 41.3969 53.1183 40.9649V32.0369C53.1183 31.5929 53.0823 31.2689 53.0103 31.0649C52.9503 30.8489 52.8183 30.7049 52.6143 30.6329C52.4223 30.5489 52.1403 30.5009 51.7683 30.4889V30.1289C52.0923 30.1409 52.5123 30.1529 53.0283 30.1649C53.5563 30.1769 54.0783 30.1829 54.5943 30.1829C55.1463 30.1829 55.6623 30.1769 56.1423 30.1649C56.6343 30.1529 57.0303 30.1409 57.3303 30.1289V30.4889C56.9463 30.5009 56.6523 30.5489 56.4483 30.6329C56.2563 30.7049 56.1303 30.8489 56.0703 31.0649C56.0103 31.2689 55.9803 31.5929 55.9803 32.0369V40.9649C55.9803 41.3969 56.0103 41.7209 56.0703 41.9369C56.1423 42.1529 56.2743 42.2969 56.4663 42.3689C56.6583 42.4409 56.9463 42.4889 57.3303 42.5129V42.8729C57.0303 42.8489 56.6343 42.8369 56.1423 42.8369C55.6623 42.8249 55.1463 42.8189 54.5943 42.8189C54.0783 42.8189 53.5563 42.8249 53.0283 42.8369C52.5123 42.8369 52.0923 42.8489 51.7683 42.8729ZM44.1363 42.8729V42.5129C44.5203 42.4889 44.8083 42.4409 45.0003 42.3689C45.1923 42.2969 45.3183 42.1529 45.3783 41.9369C45.4503 41.7209 45.4863 41.3969 45.4863 40.9649V32.0369C45.4863 31.5929 45.4503 31.2689 45.3783 31.0649C45.3183 30.8489 45.1863 30.7049 44.9823 30.6329C44.7903 30.5489 44.5083 30.5009 44.1363 30.4889V30.1289C44.4483 30.1409 44.8503 30.1529 45.3423 30.1649C45.8463 30.1769 46.3923 30.1829 46.9803 30.1829C47.4843 30.1829 47.9823 30.1769 48.4743 30.1649C48.9663 30.1529 49.3743 30.1409 49.6983 30.1289V30.4889C49.3143 30.5009 49.0203 30.5489 48.8163 30.6329C48.6243 30.7049 48.4983 30.8489 48.4383 31.0649C48.3783 31.2689 48.3483 31.5929 48.3483 32.0369V40.9649C48.3483 41.3969 48.3783 41.7209 48.4383 41.9369C48.5103 42.1529 48.6423 42.2969 48.8343 42.3689C49.0263 42.4409 49.3143 42.4889 49.6983 42.5129V42.8729C49.3743 42.8489 48.9663 42.8369 48.4743 42.8369C47.9823 42.8249 47.4843 42.8189 46.9803 42.8189C46.3923 42.8189 45.8463 42.8249 45.3423 42.8369C44.8503 42.8369 44.4483 42.8489 44.1363 42.8729ZM47.1783 36.6449V36.2849H54.2883V36.6449H47.1783ZM64.3828 30.1289V30.4889C63.9988 30.5009 63.7048 30.5489 63.5008 30.6329C63.3088 30.7049 63.1828 30.8489 63.1228 31.0649C63.0628 31.2689 63.0328 31.5929 63.0328 32.0369V40.9649C63.0328 41.3969 63.0628 41.7209 63.1228 41.9369C63.1948 42.1529 63.3268 42.2969 63.5188 42.3689C63.7108 42.4409 63.9988 42.4889 64.3828 42.5129V42.8729C64.0588 42.8489 63.6508 42.8369 63.1588 42.8369C62.6668 42.8249 62.1688 42.8189 61.6648 42.8189C61.0768 42.8189 60.5308 42.8249 60.0268 42.8369C59.5348 42.8369 59.1328 42.8489 58.8208 42.8729V42.5129C59.2048 42.4889 59.4928 42.4409 59.6848 42.3689C59.8768 42.2969 60.0028 42.1529 60.0628 41.9369C60.1348 41.7209 60.1708 41.3969 60.1708 40.9649V32.0369C60.1708 31.5929 60.1348 31.2689 60.0628 31.0649C60.0028 30.8489 59.8708 30.7049 59.6668 30.6329C59.4748 30.5489 59.1928 30.5009 58.8208 30.4889V30.1289C59.1328 30.1409 59.5348 30.1529 60.0268 30.1649C60.5308 30.1769 61.0768 30.1829 61.6648 30.1829C62.1688 30.1829 62.6668 30.1769 63.1588 30.1649C63.6508 30.1529 64.0588 30.1409 64.3828 30.1289ZM65.8764 30.1289C66.1884 30.1409 66.5964 30.1529 67.1004 30.1649C67.6044 30.1769 68.1084 30.1829 68.6124 30.1829C69.1884 30.1829 69.7464 30.1769 70.2864 30.1649C70.8264 30.1529 71.2104 30.1469 71.4384 30.1469C72.9264 30.1469 74.0364 30.4109 74.7684 30.9389C75.5124 31.4669 75.8844 32.1449 75.8844 32.9729C75.8844 33.3929 75.7584 33.8189 75.5064 34.2509C75.2544 34.6829 74.8644 35.0669 74.3364 35.4029C73.8084 35.7389 73.1244 35.9849 72.2844 36.1409V36.1769C73.4124 36.2609 74.3064 36.4649 74.9664 36.7889C75.6264 37.1129 76.1004 37.5029 76.3884 37.9589C76.6764 38.4149 76.8204 38.8889 76.8204 39.3809C76.8204 40.1369 76.6224 40.7729 76.2264 41.2889C75.8304 41.8049 75.2604 42.2009 74.5164 42.4769C73.7724 42.7409 72.8844 42.8729 71.8524 42.8729C71.5644 42.8729 71.1504 42.8669 70.6104 42.8549C70.0704 42.8309 69.4164 42.8189 68.6484 42.8189C68.1204 42.8189 67.6044 42.8249 67.1004 42.8369C66.5964 42.8369 66.1884 42.8489 65.8764 42.8729V42.5129C66.2604 42.4889 66.5484 42.4409 66.7404 42.3689C66.9324 42.2969 67.0584 42.1529 67.1184 41.9369C67.1904 41.7209 67.2264 41.3969 67.2264 40.9649V32.0369C67.2264 31.5929 67.1904 31.2689 67.1184 31.0649C67.0584 30.8489 66.9264 30.7049 66.7224 30.6329C66.5304 30.5489 66.2484 30.5009 65.8764 30.4889V30.1289ZM71.2044 30.4889C70.7364 30.4889 70.4304 30.5909 70.2864 30.7949C70.1544 30.9989 70.0884 31.4129 70.0884 32.0369V40.9649C70.0884 41.3849 70.1184 41.7029 70.1784 41.9189C70.2504 42.1349 70.3704 42.2789 70.5384 42.3509C70.7184 42.4229 70.9824 42.4589 71.3304 42.4589C72.1944 42.4589 72.8244 42.1889 73.2204 41.6489C73.6284 41.0969 73.8324 40.3169 73.8324 39.3089C73.8324 38.3849 73.5984 37.6709 73.1304 37.1669C72.6744 36.6629 71.9124 36.4109 70.8444 36.4109H69.3144C69.3144 36.4109 69.3144 36.3629 69.3144 36.2669C69.3144 36.1589 69.3144 36.1049 69.3144 36.1049H70.8624C71.4264 36.1049 71.8584 35.9729 72.1584 35.7089C72.4584 35.4329 72.6684 35.0729 72.7884 34.6289C72.9084 34.1729 72.9684 33.6869 72.9684 33.1709C72.9684 32.2829 72.8304 31.6169 72.5544 31.1729C72.2784 30.7169 71.8284 30.4889 71.2044 30.4889ZM83.8754 30.1289V30.4889C83.4674 30.5009 83.1554 30.5489 82.9394 30.6329C82.7354 30.7049 82.5974 30.8489 82.5254 31.0649C82.4534 31.2689 82.4174 31.5929 82.4174 32.0369V41.1809C82.4174 41.5529 82.4414 41.8289 82.4894 42.0089C82.5494 42.1889 82.6574 42.3089 82.8134 42.3689C82.9814 42.4289 83.2274 42.4589 83.5514 42.4589H84.4334C84.8414 42.4589 85.2254 42.3629 85.5854 42.1709C85.9454 41.9789 86.2694 41.7089 86.5574 41.3609C86.8454 41.0009 87.0854 40.5749 87.2774 40.0829C87.4694 39.5909 87.6134 39.0449 87.7094 38.4449H88.1234C88.0874 38.8529 88.0694 39.3809 88.0694 40.0289C88.0694 40.3049 88.0754 40.7069 88.0874 41.2349C88.0994 41.7629 88.1354 42.3089 88.1954 42.8729C87.5834 42.8489 86.8934 42.8369 86.1254 42.8369C85.3574 42.8249 84.6734 42.8189 84.0734 42.8189C83.7734 42.8189 83.3894 42.8189 82.9214 42.8189C82.4534 42.8189 81.9494 42.8249 81.4094 42.8369C80.8694 42.8369 80.3234 42.8429 79.7714 42.8549C79.2194 42.8549 78.6974 42.8609 78.2054 42.8729V42.5129C78.5894 42.4889 78.8774 42.4409 79.0694 42.3689C79.2614 42.2969 79.3874 42.1529 79.4474 41.9369C79.5194 41.7209 79.5554 41.3969 79.5554 40.9649V32.0369C79.5554 31.5929 79.5194 31.2689 79.4474 31.0649C79.3874 30.8489 79.2554 30.7049 79.0514 30.6329C78.8594 30.5489 78.5774 30.5009 78.2054 30.4889V30.1289C78.5054 30.1409 78.9074 30.1529 79.4114 30.1649C79.9274 30.1769 80.4734 30.1829 81.0494 30.1829C81.5774 30.1829 82.0934 30.1769 82.5974 30.1649C83.1134 30.1529 83.5394 30.1409 83.8754 30.1289ZM95.0593 30.1289V30.4889C94.6753 30.5009 94.3813 30.5489 94.1773 30.6329C93.9853 30.7049 93.8593 30.8489 93.7993 31.0649C93.7393 31.2689 93.7093 31.5929 93.7093 32.0369V40.9649C93.7093 41.3969 93.7393 41.7209 93.7993 41.9369C93.8713 42.1529 94.0033 42.2969 94.1953 42.3689C94.3873 42.4409 94.6753 42.4889 95.0593 42.5129V42.8729C94.7353 42.8489 94.3273 42.8369 93.8353 42.8369C93.3433 42.8249 92.8453 42.8189 92.3413 42.8189C91.7533 42.8189 91.2073 42.8249 90.7033 42.8369C90.2113 42.8369 89.8093 42.8489 89.4973 42.8729V42.5129C89.8813 42.4889 90.1693 42.4409 90.3613 42.3689C90.5533 42.2969 90.6793 42.1529 90.7393 41.9369C90.8113 41.7209 90.8473 41.3969 90.8473 40.9649V32.0369C90.8473 31.5929 90.8113 31.2689 90.7393 31.0649C90.6793 30.8489 90.5473 30.7049 90.3433 30.6329C90.1513 30.5489 89.8693 30.5009 89.4973 30.4889V30.1289C89.8093 30.1409 90.2113 30.1529 90.7033 30.1649C91.2073 30.1769 91.7533 30.1829 92.3413 30.1829C92.8453 30.1829 93.3433 30.1769 93.8353 30.1649C94.3273 30.1529 94.7353 30.1409 95.0593 30.1289ZM110.672 30.1289C110.624 30.6569 110.588 31.1669 110.564 31.6589C110.552 32.1509 110.546 32.5289 110.546 32.7929C110.546 33.0329 110.552 33.2609 110.564 33.4769C110.576 33.6929 110.588 33.8729 110.6 34.0169H110.186C110.066 33.1409 109.88 32.4509 109.628 31.9469C109.376 31.4309 109.046 31.0709 108.638 30.8669C108.242 30.6509 107.774 30.5429 107.234 30.5429H106.496C106.148 30.5429 105.884 30.5729 105.704 30.6329C105.524 30.6929 105.404 30.8129 105.344 30.9929C105.284 31.1729 105.254 31.4489 105.254 31.8209V41.1809C105.254 41.5529 105.284 41.8289 105.344 42.0089C105.404 42.1889 105.524 42.3089 105.704 42.3689C105.884 42.4289 106.148 42.4589 106.496 42.4589H107.378C107.918 42.4589 108.392 42.3449 108.8 42.1169C109.22 41.8769 109.574 41.4749 109.862 40.9109C110.162 40.3469 110.39 39.5849 110.546 38.6249H110.96C110.924 39.0089 110.906 39.5129 110.906 40.1369C110.906 40.4129 110.912 40.8029 110.924 41.3069C110.936 41.8109 110.972 42.3329 111.032 42.8729C110.42 42.8489 109.73 42.8369 108.962 42.8369C108.194 42.8249 107.51 42.8189 106.91 42.8189C106.61 42.8189 106.226 42.8189 105.758 42.8189C105.29 42.8189 104.786 42.8249 104.246 42.8369C103.706 42.8369 103.16 42.8429 102.608 42.8549C102.056 42.8549 101.534 42.8609 101.042 42.8729V42.5129C101.426 42.4889 101.714 42.4409 101.906 42.3689C102.098 42.2969 102.224 42.1529 102.284 41.9369C102.356 41.7209 102.392 41.3969 102.392 40.9649V32.0369C102.392 31.5929 102.356 31.2689 102.284 31.0649C102.224 30.8489 102.092 30.7049 101.888 30.6329C101.696 30.5489 101.414 30.5009 101.042 30.4889V30.1289C101.534 30.1409 102.056 30.1529 102.608 30.1649C103.16 30.1649 103.706 30.1709 104.246 30.1829C104.786 30.1829 105.29 30.1829 105.758 30.1829C106.226 30.1829 106.61 30.1829 106.91 30.1829C107.462 30.1829 108.086 30.1829 108.782 30.1829C109.49 30.1709 110.12 30.1529 110.672 30.1289ZM107.864 36.2849C107.864 36.2849 107.864 36.3449 107.864 36.4649C107.864 36.5849 107.864 36.6449 107.864 36.6449H104.714C104.714 36.6449 104.714 36.5849 104.714 36.4649C104.714 36.3449 104.714 36.2849 104.714 36.2849H107.864ZM108.386 33.9089C108.338 34.5929 108.314 35.1149 108.314 35.4749C108.326 35.8349 108.332 36.1649 108.332 36.4649C108.332 36.7649 108.338 37.0949 108.35 37.4549C108.362 37.8149 108.392 38.3369 108.44 39.0209H108.026C107.966 38.6009 107.852 38.2109 107.684 37.8509C107.528 37.4909 107.3 37.2029 107 36.9869C106.7 36.7589 106.31 36.6449 105.83 36.6449V36.2849C106.19 36.2849 106.496 36.2129 106.748 36.0689C107 35.9129 107.204 35.7149 107.36 35.4749C107.528 35.2229 107.66 34.9589 107.756 34.6829C107.852 34.4069 107.924 34.1489 107.972 33.9089H108.386ZM117.508 30.1109V30.4889C116.968 30.4889 116.62 30.5429 116.464 30.6509C116.32 30.7469 116.332 30.9209 116.5 31.1729L123.628 41.5949C123.868 41.9309 124.06 42.1589 124.204 42.2789C124.348 42.3989 124.54 42.4709 124.78 42.4949V42.8729C124.54 42.8609 124.192 42.8489 123.736 42.8369C123.28 42.8129 122.806 42.8009 122.314 42.8009C121.774 42.8009 121.222 42.8129 120.658 42.8369C120.106 42.8489 119.692 42.8609 119.416 42.8729V42.4949C119.968 42.4949 120.322 42.4589 120.478 42.3869C120.646 42.3029 120.646 42.1349 120.478 41.8829L113.332 31.3889C113.104 31.0409 112.918 30.8069 112.774 30.6869C112.63 30.5669 112.432 30.5009 112.18 30.4889V30.1109C112.432 30.1229 112.798 30.1409 113.278 30.1649C113.77 30.1769 114.262 30.1829 114.754 30.1829C115.294 30.1829 115.81 30.1769 116.302 30.1649C116.806 30.1409 117.208 30.1229 117.508 30.1109ZM117.67 36.4649C117.67 36.4649 117.682 36.5069 117.706 36.5909C117.73 36.6629 117.754 36.7409 117.778 36.8249C117.802 36.8969 117.814 36.9329 117.814 36.9329L116.014 39.3989C115.534 40.0469 115.264 40.5989 115.204 41.0549C115.144 41.4989 115.246 41.8469 115.51 42.0989C115.786 42.3389 116.188 42.4769 116.716 42.5129V42.8729C116.548 42.8609 116.332 42.8549 116.068 42.8549C115.816 42.8429 115.546 42.8369 115.258 42.8369C114.982 42.8249 114.718 42.8189 114.466 42.8189C114.226 42.8189 114.028 42.8189 113.872 42.8189C113.536 42.8189 113.224 42.8249 112.936 42.8369C112.648 42.8369 112.408 42.8489 112.216 42.8729V42.5129C112.636 42.3689 113.062 42.1169 113.494 41.7569C113.926 41.3849 114.37 40.9049 114.826 40.3169L117.67 36.4649ZM123.97 30.1289V30.4889C123.574 30.5969 123.178 30.8249 122.782 31.1729C122.398 31.5209 122.038 31.9229 121.702 32.3789L118.786 36.2669C118.786 36.2669 118.762 36.1889 118.714 36.0329C118.678 35.8769 118.66 35.7989 118.66 35.7989L120.514 33.2969C120.97 32.7209 121.24 32.2289 121.324 31.8209C121.42 31.4129 121.354 31.0949 121.126 30.8669C120.898 30.6389 120.538 30.5129 120.046 30.4889V30.1289C120.274 30.1409 120.526 30.1529 120.802 30.1649C121.078 30.1649 121.348 30.1709 121.612 30.1829C121.888 30.1829 122.122 30.1829 122.314 30.1829C122.662 30.1829 122.98 30.1769 123.268 30.1649C123.556 30.1529 123.79 30.1409 123.97 30.1289ZM125.472 30.1289C125.772 30.1409 126.174 30.1529 126.678 30.1649C127.194 30.1769 127.704 30.1829 128.208 30.1829C128.784 30.1829 129.342 30.1769 129.882 30.1649C130.422 30.1529 130.806 30.1469 131.034 30.1469C132.702 30.1469 133.95 30.4769 134.778 31.1369C135.606 31.7969 136.02 32.6489 136.02 33.6929C136.02 34.1249 135.936 34.5809 135.768 35.0609C135.6 35.5289 135.312 35.9669 134.904 36.3749C134.508 36.7709 133.962 37.0949 133.266 37.3469C132.57 37.5989 131.694 37.7249 130.638 37.7249H128.802V37.3649H130.458C131.166 37.3649 131.7 37.2029 132.06 36.8789C132.432 36.5549 132.684 36.1289 132.816 35.6009C132.96 35.0729 133.032 34.5029 133.032 33.8909C133.032 32.7509 132.864 31.8989 132.528 31.3349C132.192 30.7709 131.616 30.4889 130.8 30.4889C130.332 30.4889 130.026 30.5909 129.882 30.7949C129.75 30.9989 129.684 31.4129 129.684 32.0369V40.8569C129.684 41.3249 129.732 41.6729 129.828 41.9009C129.924 42.1289 130.11 42.2789 130.386 42.3509C130.662 42.4229 131.07 42.4649 131.61 42.4769V42.8729C131.238 42.8609 130.758 42.8489 130.17 42.8369C129.582 42.8249 128.964 42.8189 128.316 42.8189C127.8 42.8189 127.296 42.8249 126.804 42.8369C126.312 42.8489 125.868 42.8609 125.472 42.8729V42.5129C125.856 42.4889 126.144 42.4409 126.336 42.3689C126.528 42.2969 126.654 42.1529 126.714 41.9369C126.786 41.7209 126.822 41.3969 126.822 40.9649V32.0369C126.822 31.5929 126.786 31.2689 126.714 31.0649C126.654 30.8489 126.522 30.7049 126.318 30.6329C126.126 30.5489 125.844 30.5009 125.472 30.4889V30.1289ZM142.873 30.1289V30.4889C142.465 30.5009 142.153 30.5489 141.937 30.6329C141.733 30.7049 141.595 30.8489 141.523 31.0649C141.451 31.2689 141.415 31.5929 141.415 32.0369V41.1809C141.415 41.5529 141.439 41.8289 141.487 42.0089C141.547 42.1889 141.655 42.3089 141.811 42.3689C141.979 42.4289 142.225 42.4589 142.549 42.4589H143.431C143.839 42.4589 144.223 42.3629 144.583 42.1709C144.943 41.9789 145.267 41.7089 145.555 41.3609C145.843 41.0009 146.083 40.5749 146.275 40.0829C146.467 39.5909 146.611 39.0449 146.707 38.4449H147.121C147.085 38.8529 147.067 39.3809 147.067 40.0289C147.067 40.3049 147.073 40.7069 147.085 41.2349C147.097 41.7629 147.133 42.3089 147.193 42.8729C146.581 42.8489 145.891 42.8369 145.123 42.8369C144.355 42.8249 143.671 42.8189 143.071 42.8189C142.771 42.8189 142.387 42.8189 141.919 42.8189C141.451 42.8189 140.947 42.8249 140.407 42.8369C139.867 42.8369 139.321 42.8429 138.769 42.8549C138.217 42.8549 137.695 42.8609 137.203 42.8729V42.5129C137.587 42.4889 137.875 42.4409 138.067 42.3689C138.259 42.2969 138.385 42.1529 138.445 41.9369C138.517 41.7209 138.553 41.3969 138.553 40.9649V32.0369C138.553 31.5929 138.517 31.2689 138.445 31.0649C138.385 30.8489 138.253 30.7049 138.049 30.6329C137.857 30.5489 137.575 30.5009 137.203 30.4889V30.1289C137.503 30.1409 137.905 30.1529 138.409 30.1649C138.925 30.1769 139.471 30.1829 140.047 30.1829C140.575 30.1829 141.091 30.1769 141.595 30.1649C142.111 30.1529 142.537 30.1409 142.873 30.1289ZM155.029 29.8769C156.301 29.8769 157.411 30.1349 158.359 30.6509C159.319 31.1669 160.063 31.9109 160.591 32.8829C161.119 33.8429 161.383 35.0129 161.383 36.3929C161.383 37.7369 161.113 38.9129 160.573 39.9209C160.033 40.9289 159.277 41.7149 158.305 42.2789C157.345 42.8429 156.247 43.1249 155.011 43.1249C153.739 43.1249 152.623 42.8669 151.663 42.3509C150.715 41.8349 149.977 41.0909 149.449 40.1189C148.921 39.1469 148.657 37.9769 148.657 36.6089C148.657 35.2649 148.927 34.0889 149.467 33.0809C150.019 32.0729 150.769 31.2869 151.717 30.7229C152.677 30.1589 153.781 29.8769 155.029 29.8769ZM154.957 30.2009C154.285 30.2009 153.697 30.4709 153.193 31.0109C152.701 31.5509 152.317 32.2949 152.041 33.2429C151.777 34.1909 151.645 35.2889 151.645 36.5369C151.645 37.8089 151.795 38.9189 152.095 39.8669C152.407 40.8029 152.821 41.5289 153.337 42.0449C153.865 42.5489 154.447 42.8009 155.083 42.8009C155.755 42.8009 156.337 42.5309 156.829 41.9909C157.333 41.4509 157.717 40.7069 157.981 39.7589C158.257 38.7989 158.395 37.7009 158.395 36.4649C158.395 35.1809 158.239 34.0709 157.927 33.1349C157.627 32.1989 157.213 31.4789 156.685 30.9749C156.169 30.4589 155.593 30.2009 154.957 30.2009ZM162.916 30.1289C163.216 30.1409 163.618 30.1529 164.122 30.1649C164.638 30.1769 165.148 30.1829 165.652 30.1829C166.228 30.1829 166.786 30.1769 167.326 30.1649C167.866 30.1529 168.25 30.1469 168.478 30.1469C169.594 30.1469 170.518 30.2729 171.25 30.5249C171.994 30.7649 172.546 31.1189 172.906 31.5869C173.278 32.0549 173.464 32.6189 173.464 33.2789C173.464 33.6869 173.38 34.1009 173.212 34.5209C173.044 34.9289 172.756 35.3129 172.348 35.6729C171.952 36.0209 171.406 36.3029 170.71 36.5189C170.014 36.7229 169.138 36.8249 168.082 36.8249H166.354V36.4649H167.902C168.61 36.4649 169.144 36.3329 169.504 36.0689C169.876 35.7929 170.128 35.4329 170.26 34.9889C170.404 34.5329 170.476 34.0289 170.476 33.4769C170.476 32.5289 170.308 31.7969 169.972 31.2809C169.636 30.7529 169.06 30.4889 168.244 30.4889C167.776 30.4889 167.47 30.5909 167.326 30.7949C167.194 30.9989 167.128 31.4129 167.128 32.0369V40.9649C167.128 41.3969 167.158 41.7209 167.218 41.9369C167.29 42.1529 167.422 42.2969 167.614 42.3689C167.806 42.4409 168.094 42.4889 168.478 42.5129V42.8729C168.154 42.8489 167.746 42.8369 167.254 42.8369C166.762 42.8249 166.264 42.8189 165.76 42.8189C165.184 42.8189 164.638 42.8249 164.122 42.8369C163.618 42.8369 163.216 42.8489 162.916 42.8729V42.5129C163.3 42.4889 163.588 42.4409 163.78 42.3689C163.972 42.2969 164.098 42.1529 164.158 41.9369C164.23 41.7209 164.266 41.3969 164.266 40.9649V32.0369C164.266 31.5929 164.23 31.2689 164.158 31.0649C164.098 30.8489 163.966 30.7049 163.762 30.6329C163.57 30.5489 163.288 30.5009 162.916 30.4889V30.1289ZM166.318 36.5189C166.834 36.5309 167.278 36.5549 167.65 36.5909C168.034 36.6269 168.37 36.6629 168.658 36.6989C168.946 36.7229 169.204 36.7409 169.432 36.7529C170.524 36.8489 171.328 37.0829 171.844 37.4549C172.372 37.8269 172.714 38.3849 172.87 39.1289L173.284 40.9829C173.392 41.4629 173.506 41.7989 173.626 41.9909C173.746 42.1829 173.92 42.2789 174.148 42.2789C174.304 42.2669 174.43 42.2309 174.526 42.1709C174.634 42.0989 174.748 41.9969 174.868 41.8649L175.12 42.0809C174.796 42.4529 174.448 42.7169 174.076 42.8729C173.704 43.0409 173.254 43.1249 172.726 43.1249C172.078 43.1249 171.544 42.9869 171.124 42.7109C170.704 42.4349 170.428 41.9249 170.296 41.1809L169.972 39.3809C169.888 38.8769 169.786 38.4389 169.666 38.0669C169.546 37.6829 169.378 37.3829 169.162 37.1669C168.958 36.9389 168.67 36.8249 168.298 36.8249H166.354L166.318 36.5189ZM185.297 30.1289C185.249 30.6569 185.213 31.1669 185.189 31.6589C185.177 32.1509 185.171 32.5289 185.171 32.7929C185.171 33.0329 185.177 33.2609 185.189 33.4769C185.201 33.6929 185.213 33.8729 185.225 34.0169H184.811C184.691 33.1409 184.505 32.4509 184.253 31.9469C184.001 31.4309 183.671 31.0709 183.263 30.8669C182.867 30.6509 182.399 30.5429 181.859 30.5429H181.121C180.773 30.5429 180.509 30.5729 180.329 30.6329C180.149 30.6929 180.029 30.8129 179.969 30.9929C179.909 31.1729 179.879 31.4489 179.879 31.8209V41.1809C179.879 41.5529 179.909 41.8289 179.969 42.0089C180.029 42.1889 180.149 42.3089 180.329 42.3689C180.509 42.4289 180.773 42.4589 181.121 42.4589H182.003C182.543 42.4589 183.017 42.3449 183.425 42.1169C183.845 41.8769 184.199 41.4749 184.487 40.9109C184.787 40.3469 185.015 39.5849 185.171 38.6249H185.585C185.549 39.0089 185.531 39.5129 185.531 40.1369C185.531 40.4129 185.537 40.8029 185.549 41.3069C185.561 41.8109 185.597 42.3329 185.657 42.8729C185.045 42.8489 184.355 42.8369 183.587 42.8369C182.819 42.8249 182.135 42.8189 181.535 42.8189C181.235 42.8189 180.851 42.8189 180.383 42.8189C179.915 42.8189 179.411 42.8249 178.871 42.8369C178.331 42.8369 177.785 42.8429 177.233 42.8549C176.681 42.8549 176.159 42.8609 175.667 42.8729V42.5129C176.051 42.4889 176.339 42.4409 176.531 42.3689C176.723 42.2969 176.849 42.1529 176.909 41.9369C176.981 41.7209 177.017 41.3969 177.017 40.9649V32.0369C177.017 31.5929 176.981 31.2689 176.909 31.0649C176.849 30.8489 176.717 30.7049 176.513 30.6329C176.321 30.5489 176.039 30.5009 175.667 30.4889V30.1289C176.159 30.1409 176.681 30.1529 177.233 30.1649C177.785 30.1649 178.331 30.1709 178.871 30.1829C179.411 30.1829 179.915 30.1829 180.383 30.1829C180.851 30.1829 181.235 30.1829 181.535 30.1829C182.087 30.1829 182.711 30.1829 183.407 30.1829C184.115 30.1709 184.745 30.1529 185.297 30.1289ZM182.489 36.2849C182.489 36.2849 182.489 36.3449 182.489 36.4649C182.489 36.5849 182.489 36.6449 182.489 36.6449H179.339C179.339 36.6449 179.339 36.5849 179.339 36.4649C179.339 36.3449 179.339 36.2849 179.339 36.2849H182.489ZM183.011 33.9089C182.963 34.5929 182.939 35.1149 182.939 35.4749C182.951 35.8349 182.957 36.1649 182.957 36.4649C182.957 36.7649 182.963 37.0949 182.975 37.4549C182.987 37.8149 183.017 38.3369 183.065 39.0209H182.651C182.591 38.6009 182.477 38.2109 182.309 37.8509C182.153 37.4909 181.925 37.2029 181.625 36.9869C181.325 36.7589 180.935 36.6449 180.455 36.6449V36.2849C180.815 36.2849 181.121 36.2129 181.373 36.0689C181.625 35.9129 181.829 35.7149 181.985 35.4749C182.153 35.2229 182.285 34.9589 182.381 34.6829C182.477 34.4069 182.549 34.1489 182.597 33.9089H183.011ZM187.363 30.1289C187.663 30.1409 188.065 30.1529 188.569 30.1649C189.085 30.1769 189.595 30.1829 190.099 30.1829C190.675 30.1829 191.233 30.1769 191.773 30.1649C192.313 30.1529 192.697 30.1469 192.925 30.1469C194.041 30.1469 194.965 30.2729 195.697 30.5249C196.441 30.7649 196.993 31.1189 197.353 31.5869C197.725 32.0549 197.911 32.6189 197.911 33.2789C197.911 33.6869 197.827 34.1009 197.659 34.5209C197.491 34.9289 197.203 35.3129 196.795 35.6729C196.399 36.0209 195.853 36.3029 195.157 36.5189C194.461 36.7229 193.585 36.8249 192.529 36.8249H190.801V36.4649H192.349C193.057 36.4649 193.591 36.3329 193.951 36.0689C194.323 35.7929 194.575 35.4329 194.707 34.9889C194.851 34.5329 194.923 34.0289 194.923 33.4769C194.923 32.5289 194.755 31.7969 194.419 31.2809C194.083 30.7529 193.507 30.4889 192.691 30.4889C192.223 30.4889 191.917 30.5909 191.773 30.7949C191.641 30.9989 191.575 31.4129 191.575 32.0369V40.9649C191.575 41.3969 191.605 41.7209 191.665 41.9369C191.737 42.1529 191.869 42.2969 192.061 42.3689C192.253 42.4409 192.541 42.4889 192.925 42.5129V42.8729C192.601 42.8489 192.193 42.8369 191.701 42.8369C191.209 42.8249 190.711 42.8189 190.207 42.8189C189.631 42.8189 189.085 42.8249 188.569 42.8369C188.065 42.8369 187.663 42.8489 187.363 42.8729V42.5129C187.747 42.4889 188.035 42.4409 188.227 42.3689C188.419 42.2969 188.545 42.1529 188.605 41.9369C188.677 41.7209 188.713 41.3969 188.713 40.9649V32.0369C188.713 31.5929 188.677 31.2689 188.605 31.0649C188.545 30.8489 188.413 30.7049 188.209 30.6329C188.017 30.5489 187.735 30.5009 187.363 30.4889V30.1289ZM190.765 36.5189C191.281 36.5309 191.725 36.5549 192.097 36.5909C192.481 36.6269 192.817 36.6629 193.105 36.6989C193.393 36.7229 193.651 36.7409 193.879 36.7529C194.971 36.8489 195.775 37.0829 196.291 37.4549C196.819 37.8269 197.161 38.3849 197.317 39.1289L197.731 40.9829C197.839 41.4629 197.953 41.7989 198.073 41.9909C198.193 42.1829 198.367 42.2789 198.595 42.2789C198.751 42.2669 198.877 42.2309 198.973 42.1709C199.081 42.0989 199.195 41.9969 199.315 41.8649L199.567 42.0809C199.243 42.4529 198.895 42.7169 198.523 42.8729C198.151 43.0409 197.701 43.1249 197.173 43.1249C196.525 43.1249 195.991 42.9869 195.571 42.7109C195.151 42.4349 194.875 41.9249 194.743 41.1809L194.419 39.3809C194.335 38.8769 194.233 38.4389 194.113 38.0669C193.993 37.6829 193.825 37.3829 193.609 37.1669C193.405 36.9389 193.117 36.8249 192.745 36.8249H190.801L190.765 36.5189Z" fill="#1A2E25"/>
</svg>
